<mxfile host="app.diagrams.net" modified="2023-05-30T01:13:51.674Z" agent="Mozilla/5.0 (Macintosh; Intel Mac OS X 10_15_7) AppleWebKit/537.36 (KHTML, like Gecko) Chrome/113.0.0.0 Safari/537.36" etag="WcZ_j2uqidYpx_wM0-0D" version="21.2.8" type="github">
  <diagram name="Page-1" id="-b-mgLnNyKhTVOmsAnaT">
    <mxGraphModel dx="2231" dy="725" grid="1" gridSize="10" guides="1" tooltips="1" connect="1" arrows="1" fold="1" page="1" pageScale="1" pageWidth="826" pageHeight="1169" math="0" shadow="0">
      <root>
        <mxCell id="0" />
        <mxCell id="1" parent="0" />
        <mxCell id="RiAGdgWCF8noxPz8Tucr-1" value="NavBar" style="rounded=0;whiteSpace=wrap;html=1;" vertex="1" parent="1">
          <mxGeometry x="40" y="20" width="760" height="50" as="geometry" />
        </mxCell>
        <mxCell id="RiAGdgWCF8noxPz8Tucr-2" value="BANNER 1" style="rounded=0;whiteSpace=wrap;html=1;" vertex="1" parent="1">
          <mxGeometry x="40" y="90" width="760" height="50" as="geometry" />
        </mxCell>
        <mxCell id="RiAGdgWCF8noxPz8Tucr-8" value="HOME" style="shape=process;whiteSpace=wrap;html=1;backgroundOutline=1;" vertex="1" parent="1">
          <mxGeometry x="-140" y="30" width="120" height="60" as="geometry" />
        </mxCell>
        <mxCell id="RiAGdgWCF8noxPz8Tucr-9" value="BOLSOS" style="swimlane;fontStyle=0;childLayout=stackLayout;horizontal=1;startSize=30;horizontalStack=0;resizeParent=1;resizeParentMax=0;resizeLast=0;collapsible=1;marginBottom=0;whiteSpace=wrap;html=1;" vertex="1" parent="1">
          <mxGeometry x="-750" y="270" width="140" height="120" as="geometry" />
        </mxCell>
        <mxCell id="RiAGdgWCF8noxPz8Tucr-10" value="Id" style="text;strokeColor=none;fillColor=none;align=left;verticalAlign=middle;spacingLeft=4;spacingRight=4;overflow=hidden;points=[[0,0.5],[1,0.5]];portConstraint=eastwest;rotatable=0;whiteSpace=wrap;html=1;" vertex="1" parent="RiAGdgWCF8noxPz8Tucr-9">
          <mxGeometry y="30" width="140" height="30" as="geometry" />
        </mxCell>
        <mxCell id="RiAGdgWCF8noxPz8Tucr-11" value="Name" style="text;strokeColor=none;fillColor=none;align=left;verticalAlign=middle;spacingLeft=4;spacingRight=4;overflow=hidden;points=[[0,0.5],[1,0.5]];portConstraint=eastwest;rotatable=0;whiteSpace=wrap;html=1;" vertex="1" parent="RiAGdgWCF8noxPz8Tucr-9">
          <mxGeometry y="60" width="140" height="30" as="geometry" />
        </mxCell>
        <mxCell id="RiAGdgWCF8noxPz8Tucr-12" value="Type" style="text;strokeColor=none;fillColor=none;align=left;verticalAlign=middle;spacingLeft=4;spacingRight=4;overflow=hidden;points=[[0,0.5],[1,0.5]];portConstraint=eastwest;rotatable=0;whiteSpace=wrap;html=1;" vertex="1" parent="RiAGdgWCF8noxPz8Tucr-9">
          <mxGeometry y="90" width="140" height="30" as="geometry" />
        </mxCell>
        <mxCell id="RiAGdgWCF8noxPz8Tucr-13" value="COLLARES" style="swimlane;fontStyle=0;childLayout=stackLayout;horizontal=1;startSize=30;horizontalStack=0;resizeParent=1;resizeParentMax=0;resizeLast=0;collapsible=1;marginBottom=0;whiteSpace=wrap;html=1;" vertex="1" parent="1">
          <mxGeometry x="-580" y="270" width="140" height="120" as="geometry" />
        </mxCell>
        <mxCell id="RiAGdgWCF8noxPz8Tucr-14" value="Id" style="text;strokeColor=none;fillColor=none;align=left;verticalAlign=middle;spacingLeft=4;spacingRight=4;overflow=hidden;points=[[0,0.5],[1,0.5]];portConstraint=eastwest;rotatable=0;whiteSpace=wrap;html=1;" vertex="1" parent="RiAGdgWCF8noxPz8Tucr-13">
          <mxGeometry y="30" width="140" height="30" as="geometry" />
        </mxCell>
        <mxCell id="RiAGdgWCF8noxPz8Tucr-15" value="Name" style="text;strokeColor=none;fillColor=none;align=left;verticalAlign=middle;spacingLeft=4;spacingRight=4;overflow=hidden;points=[[0,0.5],[1,0.5]];portConstraint=eastwest;rotatable=0;whiteSpace=wrap;html=1;" vertex="1" parent="RiAGdgWCF8noxPz8Tucr-13">
          <mxGeometry y="60" width="140" height="30" as="geometry" />
        </mxCell>
        <mxCell id="RiAGdgWCF8noxPz8Tucr-16" value="Type" style="text;strokeColor=none;fillColor=none;align=left;verticalAlign=middle;spacingLeft=4;spacingRight=4;overflow=hidden;points=[[0,0.5],[1,0.5]];portConstraint=eastwest;rotatable=0;whiteSpace=wrap;html=1;" vertex="1" parent="RiAGdgWCF8noxPz8Tucr-13">
          <mxGeometry y="90" width="140" height="30" as="geometry" />
        </mxCell>
        <mxCell id="RiAGdgWCF8noxPz8Tucr-17" value="PENDIENTES" style="swimlane;fontStyle=0;childLayout=stackLayout;horizontal=1;startSize=30;horizontalStack=0;resizeParent=1;resizeParentMax=0;resizeLast=0;collapsible=1;marginBottom=0;whiteSpace=wrap;html=1;" vertex="1" parent="1">
          <mxGeometry x="-413" y="270" width="140" height="120" as="geometry" />
        </mxCell>
        <mxCell id="RiAGdgWCF8noxPz8Tucr-18" value="Id" style="text;strokeColor=none;fillColor=none;align=left;verticalAlign=middle;spacingLeft=4;spacingRight=4;overflow=hidden;points=[[0,0.5],[1,0.5]];portConstraint=eastwest;rotatable=0;whiteSpace=wrap;html=1;" vertex="1" parent="RiAGdgWCF8noxPz8Tucr-17">
          <mxGeometry y="30" width="140" height="30" as="geometry" />
        </mxCell>
        <mxCell id="RiAGdgWCF8noxPz8Tucr-19" value="Name" style="text;strokeColor=none;fillColor=none;align=left;verticalAlign=middle;spacingLeft=4;spacingRight=4;overflow=hidden;points=[[0,0.5],[1,0.5]];portConstraint=eastwest;rotatable=0;whiteSpace=wrap;html=1;" vertex="1" parent="RiAGdgWCF8noxPz8Tucr-17">
          <mxGeometry y="60" width="140" height="30" as="geometry" />
        </mxCell>
        <mxCell id="RiAGdgWCF8noxPz8Tucr-20" value="Type" style="text;strokeColor=none;fillColor=none;align=left;verticalAlign=middle;spacingLeft=4;spacingRight=4;overflow=hidden;points=[[0,0.5],[1,0.5]];portConstraint=eastwest;rotatable=0;whiteSpace=wrap;html=1;" vertex="1" parent="RiAGdgWCF8noxPz8Tucr-17">
          <mxGeometry y="90" width="140" height="30" as="geometry" />
        </mxCell>
        <mxCell id="RiAGdgWCF8noxPz8Tucr-21" value="USER" style="swimlane;fontStyle=0;childLayout=stackLayout;horizontal=1;startSize=30;horizontalStack=0;resizeParent=1;resizeParentMax=0;resizeLast=0;collapsible=1;marginBottom=0;whiteSpace=wrap;html=1;" vertex="1" parent="1">
          <mxGeometry x="-750" y="80" width="140" height="150" as="geometry" />
        </mxCell>
        <mxCell id="RiAGdgWCF8noxPz8Tucr-22" value="Id" style="text;strokeColor=none;fillColor=none;align=left;verticalAlign=middle;spacingLeft=4;spacingRight=4;overflow=hidden;points=[[0,0.5],[1,0.5]];portConstraint=eastwest;rotatable=0;whiteSpace=wrap;html=1;" vertex="1" parent="RiAGdgWCF8noxPz8Tucr-21">
          <mxGeometry y="30" width="140" height="30" as="geometry" />
        </mxCell>
        <mxCell id="RiAGdgWCF8noxPz8Tucr-23" value="Name" style="text;strokeColor=none;fillColor=none;align=left;verticalAlign=middle;spacingLeft=4;spacingRight=4;overflow=hidden;points=[[0,0.5],[1,0.5]];portConstraint=eastwest;rotatable=0;whiteSpace=wrap;html=1;" vertex="1" parent="RiAGdgWCF8noxPz8Tucr-21">
          <mxGeometry y="60" width="140" height="30" as="geometry" />
        </mxCell>
        <mxCell id="RiAGdgWCF8noxPz8Tucr-24" value="Email" style="text;strokeColor=none;fillColor=none;align=left;verticalAlign=middle;spacingLeft=4;spacingRight=4;overflow=hidden;points=[[0,0.5],[1,0.5]];portConstraint=eastwest;rotatable=0;whiteSpace=wrap;html=1;" vertex="1" parent="RiAGdgWCF8noxPz8Tucr-21">
          <mxGeometry y="90" width="140" height="30" as="geometry" />
        </mxCell>
        <mxCell id="RiAGdgWCF8noxPz8Tucr-25" value="Password/facebook?" style="text;strokeColor=none;fillColor=none;align=left;verticalAlign=middle;spacingLeft=4;spacingRight=4;overflow=hidden;points=[[0,0.5],[1,0.5]];portConstraint=eastwest;rotatable=0;whiteSpace=wrap;html=1;" vertex="1" parent="RiAGdgWCF8noxPz8Tucr-21">
          <mxGeometry y="120" width="140" height="30" as="geometry" />
        </mxCell>
        <mxCell id="RiAGdgWCF8noxPz8Tucr-26" value="CARROUSEL" style="shape=process;whiteSpace=wrap;html=1;backgroundOutline=1;" vertex="1" parent="1">
          <mxGeometry x="40" y="170" width="760" height="220" as="geometry" />
        </mxCell>
        <mxCell id="RiAGdgWCF8noxPz8Tucr-35" value="" style="rounded=0;whiteSpace=wrap;html=1;" vertex="1" parent="1">
          <mxGeometry x="59" y="490" width="200" height="240" as="geometry" />
        </mxCell>
        <mxCell id="RiAGdgWCF8noxPz8Tucr-36" value="" style="rounded=0;whiteSpace=wrap;html=1;" vertex="1" parent="1">
          <mxGeometry x="312" y="490" width="200" height="240" as="geometry" />
        </mxCell>
        <mxCell id="RiAGdgWCF8noxPz8Tucr-37" value="" style="rounded=0;whiteSpace=wrap;html=1;" vertex="1" parent="1">
          <mxGeometry x="569" y="490" width="200" height="240" as="geometry" />
        </mxCell>
        <mxCell id="RiAGdgWCF8noxPz8Tucr-38" value="" style="rounded=0;whiteSpace=wrap;html=1;" vertex="1" parent="1">
          <mxGeometry x="57" y="800" width="200" height="240" as="geometry" />
        </mxCell>
        <mxCell id="RiAGdgWCF8noxPz8Tucr-39" value="" style="rounded=0;whiteSpace=wrap;html=1;" vertex="1" parent="1">
          <mxGeometry x="310" y="800" width="200" height="240" as="geometry" />
        </mxCell>
        <mxCell id="RiAGdgWCF8noxPz8Tucr-40" value="" style="rounded=0;whiteSpace=wrap;html=1;" vertex="1" parent="1">
          <mxGeometry x="567" y="800" width="200" height="240" as="geometry" />
        </mxCell>
        <mxCell id="RiAGdgWCF8noxPz8Tucr-41" value="Most popular" style="text;html=1;strokeColor=none;fillColor=none;align=center;verticalAlign=middle;whiteSpace=wrap;rounded=0;" vertex="1" parent="1">
          <mxGeometry x="375" y="420" width="90" height="30" as="geometry" />
        </mxCell>
        <mxCell id="RiAGdgWCF8noxPz8Tucr-42" value="SEARCH RESOULT" style="shape=process;whiteSpace=wrap;html=1;backgroundOutline=1;" vertex="1" parent="1">
          <mxGeometry x="-140" y="1210" width="120" height="60" as="geometry" />
        </mxCell>
        <mxCell id="RiAGdgWCF8noxPz8Tucr-43" value="" style="rounded=0;whiteSpace=wrap;html=1;" vertex="1" parent="1">
          <mxGeometry x="850" y="20" width="760" height="50" as="geometry" />
        </mxCell>
        <mxCell id="RiAGdgWCF8noxPz8Tucr-44" value="&lt;font style=&quot;font-size: 24px;&quot;&gt;LOGO&lt;/font&gt;" style="text;html=1;strokeColor=none;fillColor=none;align=center;verticalAlign=middle;whiteSpace=wrap;rounded=0;" vertex="1" parent="1">
          <mxGeometry x="860" y="20" width="120" height="50" as="geometry" />
        </mxCell>
        <mxCell id="RiAGdgWCF8noxPz8Tucr-45" value="SHOPING CART" style="text;html=1;strokeColor=#19011D;fillColor=none;align=center;verticalAlign=middle;whiteSpace=wrap;rounded=0;shadow=1;" vertex="1" parent="1">
          <mxGeometry x="1250" y="25" width="90" height="40" as="geometry" />
        </mxCell>
        <mxCell id="RiAGdgWCF8noxPz8Tucr-46" value="FAV" style="text;html=1;strokeColor=none;fillColor=none;align=center;verticalAlign=middle;whiteSpace=wrap;rounded=0;" vertex="1" parent="1">
          <mxGeometry x="1330" y="25" width="90" height="40" as="geometry" />
        </mxCell>
        <mxCell id="RiAGdgWCF8noxPz8Tucr-47" value="LOGIN" style="text;html=1;strokeColor=none;fillColor=none;align=center;verticalAlign=middle;whiteSpace=wrap;rounded=0;" vertex="1" parent="1">
          <mxGeometry x="1410" y="25" width="90" height="40" as="geometry" />
        </mxCell>
        <mxCell id="RiAGdgWCF8noxPz8Tucr-48" value="REGISTER" style="text;html=1;strokeColor=none;fillColor=none;align=center;verticalAlign=middle;whiteSpace=wrap;rounded=0;" vertex="1" parent="1">
          <mxGeometry x="1490" y="25" width="90" height="40" as="geometry" />
        </mxCell>
        <mxCell id="RiAGdgWCF8noxPz8Tucr-49" value="" style="rounded=0;whiteSpace=wrap;html=1;" vertex="1" parent="1">
          <mxGeometry x="850" y="90" width="760" height="50" as="geometry" />
        </mxCell>
        <mxCell id="RiAGdgWCF8noxPz8Tucr-50" value="ENVIO GRATIS A PARTIR DE 29E" style="rounded=0;whiteSpace=wrap;html=1;" vertex="1" parent="1">
          <mxGeometry x="860" y="100" width="240" height="30" as="geometry" />
        </mxCell>
        <mxCell id="RiAGdgWCF8noxPz8Tucr-51" value="DEVOLUCION GRATUITA" style="rounded=0;whiteSpace=wrap;html=1;" vertex="1" parent="1">
          <mxGeometry x="1110" y="100" width="240" height="30" as="geometry" />
        </mxCell>
        <mxCell id="RiAGdgWCF8noxPz8Tucr-52" value="15% DE DTO.&lt;br&gt;EN TU PRIMER PEDIDO" style="rounded=0;whiteSpace=wrap;html=1;" vertex="1" parent="1">
          <mxGeometry x="1360" y="100" width="240" height="30" as="geometry" />
        </mxCell>
      </root>
    </mxGraphModel>
  </diagram>
</mxfile>
